<svg id="Layer_1" data-name="Layer 1" xmlns="http://www.w3.org/2000/svg" viewBox="0 0 512 512"><defs><style>.cls-1{fill:#ffbf3e;}.cls-2{fill:#e8a328;}.cls-3{fill:#febe40;}.cls-4{fill:#f7f8eb;}.cls-5{fill:#f04348;}.cls-6{stroke:#000;stroke-linecap:round;stroke-miterlimit:10;}</style></defs><title>favicon-sunshineArtboard 1</title><path class="cls-1" d="M459.12,243.46,490,197.54a21.63,21.63,0,0,0-10.52-32.4l-52-19a21.63,21.63,0,0,1-14.2-19.53l-2-55.33a21.63,21.63,0,0,0-27.54-20L330.53,66.43A21.64,21.64,0,0,1,307.59,59L273.41,15.42a21.62,21.62,0,0,0-34,0L205.2,59a21.64,21.64,0,0,1-22.94,7.45L129,51.28a21.63,21.63,0,0,0-27.54,20l-2,55.33a21.64,21.64,0,0,1-14.2,19.53l-52,19a21.64,21.64,0,0,0-10.53,32.4l30.9,45.92a21.6,21.6,0,0,1,0,24.15l-30.9,45.92a21.64,21.64,0,0,0,10.53,32.4l52,19a21.62,21.62,0,0,1,14.2,19.53l2,55.32a21.63,21.63,0,0,0,27.54,20l53.25-15.14a21.61,21.61,0,0,1,22.94,7.45l34.18,43.55a21.62,21.62,0,0,0,34,0l34.18-43.55a21.61,21.61,0,0,1,22.94-7.45l53.25,15.14a21.63,21.63,0,0,0,27.54-20l2-55.32a21.64,21.64,0,0,1,14.2-19.54l52-19A21.64,21.64,0,0,0,490,313.53l-30.9-45.92A21.62,21.62,0,0,1,459.12,243.46Z"/><path class="cls-2" d="M402.12,255.54A145.59,145.59,0,1,1,282.25,112.1,145.75,145.75,0,0,1,402.12,255.54Z"/><path d="M256.39,511.54a29.06,29.06,0,0,1-23-11.2l-34.17-43.55A14,14,0,0,0,184.34,452l-53.25,15.15a29.24,29.24,0,0,1-37.21-27.06l-2-55.33a14,14,0,0,0-9.21-12.66l-52-19a29.22,29.22,0,0,1-14.22-43.78l30.9-45.92a14,14,0,0,0,0-15.67L16.45,201.79A29.25,29.25,0,0,1,30.68,158l52-19a14,14,0,0,0,9.21-12.67l2-55.33a29.23,29.23,0,0,1,37.21-27l53.25,15.14a14,14,0,0,0,14.88-4.83l34.17-43.55a29.23,29.23,0,0,1,46,0l34.18,43.55a14,14,0,0,0,14.88,4.83L381.7,44A29.23,29.23,0,0,1,418.91,71l2,55.33A14,14,0,0,0,430.14,139l15.54,5.68A7.6,7.6,0,1,1,440.47,159l-15.55-5.68a29.13,29.13,0,0,1-19.19-26.39l-2-55.33a14,14,0,0,0-17.86-13L332.61,73.74a29.12,29.12,0,0,1-31-10.07L267.43,20.11a14,14,0,0,0-22.07,0L211.18,63.67a29.14,29.14,0,0,1-31,10.07L126.93,58.59a14,14,0,0,0-17.86,13l-2,55.33A29.13,29.13,0,0,1,87.87,153.3l-52,19a14,14,0,0,0-6.83,21L60,239.21a29.1,29.1,0,0,1,0,32.65l-30.9,45.92a14,14,0,0,0,6.83,21l52,19a29.14,29.14,0,0,1,19.19,26.4l2,55.33a14,14,0,0,0,17.86,13l53.25-15.15a29.11,29.11,0,0,1,31,10.07L245.36,491a14,14,0,0,0,22.07,0l34.18-43.56a29.14,29.14,0,0,1,31-10.07l53.25,15.15a14,14,0,0,0,17.86-13l2-55.33a29.12,29.12,0,0,1,19.19-26.4l52-19a14,14,0,0,0,6.83-21l-30.91-45.91a29.14,29.14,0,0,1,0-32.65l30.91-45.92a14,14,0,0,0-6.83-21l-9.44-3.45a7.6,7.6,0,1,1,5.21-14.28l9.45,3.45a29.24,29.24,0,0,1,14.22,43.78l-30.9,45.92a14,14,0,0,0,0,15.67l30.9,45.92a29.24,29.24,0,0,1-14.22,43.78l-52,19a14,14,0,0,0-9.2,12.67l-2,55.33a29.24,29.24,0,0,1-37.22,27.06L328.44,452a14,14,0,0,0-14.87,4.84l-34.18,43.55A29,29,0,0,1,256.39,511.54Z"/><path d="M256.39,408.86A152.29,152.29,0,0,1,148,364a7.6,7.6,0,0,1,10.76-10.75,137.19,137.19,0,0,0,97.66,40.46c76.16,0,138.12-62,138.12-138.12S332.56,117.42,256.39,117.42s-138.12,62-138.12,138.12a137.54,137.54,0,0,0,22.65,75.8,7.61,7.61,0,1,1-12.71,8.36,152.68,152.68,0,0,1-25.14-84.16c0-84.55,68.78-153.33,153.32-153.33S409.72,171,409.72,255.54,340.94,408.86,256.39,408.86Z"/><path d="M215.63,250.73a7.6,7.6,0,0,1-7.6-7.6v-29a7.61,7.61,0,0,1,15.21,0v29A7.61,7.61,0,0,1,215.63,250.73Z"/><path d="M297.16,250.73a7.6,7.6,0,0,1-7.61-7.6v-29a7.61,7.61,0,0,1,15.21,0v29A7.6,7.6,0,0,1,297.16,250.73Z"/><path class="cls-3" d="M350.83,289.18a108.46,108.46,0,0,1-36.58,50.26,96.21,96.21,0,0,1-116.27,0,107.6,107.6,0,0,1-36.58-50.26s54.68-13.84,94.72-13.84S350.83,289.18,350.83,289.18Z"/><path class="cls-4" d="M350.83,289.18a111.37,111.37,0,0,1-9.12,19.47c-17.23,1.09-55.54,3.35-85.59,3.35s-68.36-2.18-85.59-3.35a114.2,114.2,0,0,1-9.13-19.47s54.68-13.84,94.72-13.84S350.83,289.18,350.83,289.18Z"/><path class="cls-5" d="M314.25,339.36a96.21,96.21,0,0,1-116.27,0c13.85-7.64,34.77-12.51,58.14-12.51S300.41,331.81,314.25,339.36Z"/><path class="cls-6" d="M356.73,288.85v-.17a.79.79,0,0,0-.08-.42V288c0-.17-.08-.26-.08-.42s-.07-.17-.07-.25-.08-.26-.08-.34-.08-.17-.08-.25-.08-.25-.16-.34-.08-.08-.08-.17a.08.08,0,0,0-.08-.08c-.07-.08-.15-.25-.23-.34s-.08-.08-.08-.16a1.47,1.47,0,0,0-.32-.42l-.07-.09a5.52,5.52,0,0,0-1.42-1.26c-.08,0-.08-.08-.16-.08s-.23-.17-.39-.25-.16-.08-.24-.08-.15-.09-.23-.09h-.08c-.08,0-.16-.08-.24-.08s-.23-.09-.31-.09h-.08c-2.28-.58-55.78-14-96.05-14A299.83,299.83,0,0,0,214,272.74a6.18,6.18,0,0,0-5,7,5.93,5.93,0,0,0,6.61,5.37,288.91,288.91,0,0,1,40.59-3.35c30.68,0,70.72,8.39,86.53,12v.08l-.47,1c-.24.58-.55,1.17-.79,1.76l-.71,1.51c-.15.25-.23.5-.39.75-.63,1.26-1.26,2.52-2,3.7v.08c-19.9,1.26-54.43,3.1-82.12,3.1S194,304,174.07,302.69h0c-.71-1.26-1.34-2.43-2-3.69-.16-.25-.23-.51-.39-.76l-.71-1.51c-.31-.58-.55-1.17-.86-1.84l-.48-1v-.08c5-1.18,12.35-2.77,21.09-4.45a6.26,6.26,0,0,0,4.79-7.3,5.83,5.83,0,0,0-6.84-5c-16.52,3.19-28,6.05-28.48,6.21h-.08c-.07,0-.23.09-.31.09s-.16.08-.24.08h-.07c-.08,0-.16.09-.24.09s-.16.08-.24.08-.23.17-.31.17-.08.08-.16.08-.31.25-.47.34h0a4.48,4.48,0,0,0-.87.92l-.07.08a1.34,1.34,0,0,1-.32.42.28.28,0,0,0-.08.17,4,4,0,0,0-.23.34.08.08,0,0,1-.08.08c0,.08-.08.08-.08.17s-.08.25-.16.33-.08.17-.08.26a.51.51,0,0,0-.08.33c0,.09-.07.17-.07.25s-.08.25-.08.42a.3.3,0,0,1-.08.25.77.77,0,0,1-.08.42v.84a1.14,1.14,0,0,0,.08.51v.16c0,.17.08.34.08.51v.17c.08.16.08.33.15.5s0,.08.08.17c.4,1.17.87,2.35,1.34,3.52a4.88,4.88,0,0,0,.39.92c.4,1,.79,1.93,1.26,2.94.16.42.32.76.47,1.17.4.84.71,1.6,1.11,2.44.31.59.55,1.17.86,1.76.16.34.39.76.55,1.09a112,112,0,0,0,32.81,39.35,102.18,102.18,0,0,0,61.51,20.73c2.76,0,5.51-.09,8.26-.34A101.87,101.87,0,0,0,318,344.64h0a111.84,111.84,0,0,0,32.8-39.35c.16-.33.4-.75.55-1.09.32-.59.55-1.17.87-1.76.39-.76.71-1.6,1.1-2.35.16-.42.39-.84.55-1.26.39-.92.79-1.93,1.18-2.85.16-.34.24-.67.39-.93.48-1.17.87-2.34,1.34-3.52h0a2,2,0,0,0,.16-.67v-.08a1.14,1.14,0,0,0,.08-.51v-.17a1.12,1.12,0,0,1,.08-.5v-.17C356.73,289.1,356.73,288.93,356.73,288.85Zm-104,63.76a5.14,5.14,0,0,1-1.1-.08,21,21,0,0,1-2.36-.17c-.39,0-.78-.08-1.18-.08l-2.28-.25c-.39-.09-.78-.09-1.1-.17-.94-.08-1.81-.25-2.75-.42-.24,0-.4-.08-.63-.08-1.1-.17-2.2-.42-3.31-.59a3.38,3.38,0,0,0-.94-.17l-2.36-.5-1.18-.25c-.71-.17-1.42-.42-2.2-.59-.4-.09-.79-.25-1.1-.34l-2.36-.75c-.32-.09-.55-.17-.87-.25-1-.34-2.12-.76-3.15-1.1l-.7-.25c-.79-.33-1.66-.67-2.44-1-.4-.17-.71-.34-1.1-.51-.71-.33-1.34-.58-2.05-.92-.39-.17-.71-.34-1.1-.5-.71-.34-1.42-.68-2.05-1l-.94-.5-2.91-1.6c12.67-4.61,28.56-7.21,45.31-7.21s32.65,2.6,45.31,7.21c-.94.59-2,1.09-2.91,1.6-.31.16-.63.33-.86.42-.71.33-1.42.75-2.13,1.09-.39.16-.7.33-1.1.5a21.58,21.58,0,0,1-2.12.92,5.12,5.12,0,0,1-1,.42c-.79.34-1.66.67-2.52,1-.24.08-.4.17-.63.25-1,.42-2.13.76-3.15,1.18-.23.08-.55.16-.78.25-.79.25-1.58.5-2.44.75-.4.09-.71.25-1.1.34-.71.17-1.5.42-2.21.59-.39.08-.78.16-1.1.25l-2.36.5a4.05,4.05,0,0,1-.86.17c-1.11.25-2.21.42-3.31.59-.16,0-.39.08-.55.08-.94.17-1.81.25-2.75.42-.4.08-.71.08-1.1.17l-2.28.25c-.4,0-.79.08-1.18.08-.79.09-1.58.09-2.36.17a5.19,5.19,0,0,0-1.11.08c-1.1,0-2.28.09-3.38.09S253.91,352.61,252.73,352.61Zm60.89-20.55c-15-7.3-35.71-11.5-57.5-11.5s-42.48,4.2-57.51,11.5a99,99,0,0,1-16.05-16.36c20.46,1.17,49.49,2.6,73.56,2.6s53.1-1.43,73.55-2.6A99,99,0,0,1,313.62,332.06ZM190.33,289.39l24.93-4.14m-27.11-8.15,25.18-4.21"/><rect class="cls-6" x="192.69" y="274.76" width="21.69" height="11.99" transform="translate(-42.58 36.46) rotate(-9.27)"/></svg>